<svg width="308" height="308" viewBox="0 0 308 308" fill="none" xmlns="http://www.w3.org/2000/svg">
<path d="M227.904 176.981C227.304 176.693 204.85 165.636 200.86 164.2C199.231 163.615 197.486 163.044 195.63 163.044C192.598 163.044 190.051 164.555 188.067 167.523C185.824 170.857 179.034 178.794 176.936 181.165C176.662 181.478 176.288 181.852 176.064 181.852C175.863 181.852 172.388 180.421 171.336 179.964C147.249 169.501 128.966 144.34 126.459 140.097C126.101 139.487 126.086 139.21 126.083 139.21C126.171 138.887 126.981 138.075 127.399 137.656C128.622 136.446 129.947 134.851 131.229 133.308C131.836 132.577 132.444 131.845 133.041 131.155C134.901 128.991 135.729 127.311 136.689 125.365L137.192 124.354C139.536 119.697 137.534 115.767 136.887 114.498C136.356 113.436 126.875 90.554 125.867 88.15C123.443 82.349 120.24 79.648 115.789 79.648C115.376 79.648 115.789 79.648 114.057 79.721C111.948 79.81 100.463 81.322 95.3848 84.523C89.9998 87.918 80.8898 98.74 80.8898 117.772C80.8898 134.901 91.7598 151.074 96.4268 157.225C96.5428 157.38 96.7558 157.695 97.0648 158.147C114.938 184.249 137.219 203.593 159.806 212.616C181.551 221.302 191.848 222.306 197.702 222.306C197.703 222.306 197.703 222.306 197.703 222.306C200.163 222.306 202.132 222.113 203.869 221.942L204.971 221.837C212.483 221.171 228.991 212.617 232.746 202.182C235.704 193.963 236.484 184.983 234.516 181.724C233.168 179.508 230.845 178.393 227.904 176.981Z" fill="white"/>
<path d="M156.734 0C73.3178 0 5.45377 67.354 5.45377 150.143C5.45377 176.92 12.6198 203.131 26.1948 226.071L0.211768 302.716C-0.272232 304.145 0.0877677 305.725 1.14477 306.801C1.90777 307.58 2.94277 308 3.99977 308C4.40477 308 4.81277 307.939 5.21077 307.812L85.1308 282.416C107.001 294.101 131.719 300.269 156.735 300.269C240.143 300.27 308 232.923 308 150.143C308 67.354 240.143 0 156.734 0ZM156.734 268.994C133.195 268.994 110.396 262.197 90.7978 249.337C90.1388 248.904 89.3738 248.682 88.6038 248.682C88.1968 248.682 87.7888 248.744 87.3918 248.87L47.3568 261.596L60.2808 223.467C60.6988 222.233 60.4898 220.872 59.7198 219.82C44.7958 199.428 36.9068 175.335 36.9068 150.143C36.9068 84.6 90.6608 31.276 156.733 31.276C222.797 31.276 276.545 84.6 276.545 150.143C276.546 215.678 222.799 268.994 156.734 268.994Z" fill="white"/>
</svg>
