<?xml version="1.0" encoding="utf-8"?>
<!-- Generator: Adobe Illustrator 23.0.1, SVG Export Plug-In . SVG Version: 6.00 Build 0)  -->
<svg version="1.1" id="Layer_1" xmlns="http://www.w3.org/2000/svg" xmlns:xlink="http://www.w3.org/1999/xlink" x="0px" y="0px"
	 viewBox="0 0 233 45" style="enable-background:new 0 0 233 45;" xml:space="preserve">
<path d="M81,16.4h3.2V29H81v-1.5c-1,1.2-2.4,1.8-4,1.8c-1.3,0-2.4-0.4-3.2-1.3c-0.8-0.9-1.2-2.2-1.2-3.9v-7.7h3.2v7
	c0,1.9,0.8,2.9,2.4,2.9c1.1,0,2-0.5,2.8-1.5V16.4z M91,34.6h-3.2V16.4H91v1.2c0.4-0.4,1-0.8,1.7-1.1c0.7-0.3,1.4-0.4,2.2-0.4
	c1.7,0,3.1,0.6,4.1,1.8c1,1.2,1.6,2.8,1.6,4.6c0,2-0.6,3.6-1.8,4.9c-1.2,1.3-2.8,1.9-4.8,1.9c-1.3,0-2.2-0.2-2.9-0.6V34.6z
	 M93.9,19.1c-1.1,0-2.1,0.5-2.9,1.4v5.1c0.8,0.5,1.7,0.7,2.7,0.7c1.1,0,1.9-0.3,2.5-1c0.7-0.7,1-1.6,1-2.7c0-1-0.3-1.9-0.9-2.5
	C95.7,19.4,94.9,19.1,93.9,19.1z M104.4,19.6l-0.8-2.4c1.4-0.8,2.8-1.2,4.5-1.2c1.8,0,3,0.4,3.8,1.3c0.8,0.9,1.2,2.2,1.2,3.9V29
	h-2.8v-1.5c-0.7,1.1-2,1.6-3.7,1.6c-1.2,0-2.2-0.3-2.9-1c-0.7-0.7-1.1-1.7-1.1-2.8c0-1.3,0.4-2.3,1.3-3c0.8-0.7,2-1.1,3.3-1.1
	c1.1,0,2.1,0.3,2.9,0.8c0-1.1-0.1-1.9-0.5-2.5c-0.4-0.5-1-0.8-1.8-0.8C106.7,18.8,105.6,19.1,104.4,19.6z M107.6,26.5
	c1.1,0,1.9-0.4,2.4-1.1V24c-0.5-0.4-1.3-0.6-2.2-0.6c-0.6,0-1.1,0.1-1.5,0.4c-0.4,0.3-0.6,0.7-0.6,1.1c0,0.4,0.2,0.8,0.5,1.1
	C106.6,26.3,107.1,26.5,107.6,26.5z M124.1,16.4h4.1l-4.7,5.8l5.3,6.8h-4.1l-5-6.6L124.1,16.4z M119.6,29h-3.2V9.4h3.2V29z
	 M131.1,27.5c-1.3-1.3-1.9-2.8-1.9-4.8s0.6-3.5,1.9-4.7c1.2-1.3,2.9-1.9,5-1.9c2.1,0,3.7,0.6,5,1.9c1.3,1.2,1.9,2.8,1.9,4.7
	c0,1.9-0.6,3.5-1.9,4.8c-1.3,1.2-2.9,1.8-5,1.8C134,29.3,132.3,28.7,131.1,27.5z M133.6,20.1c-0.7,0.7-1,1.5-1,2.6
	c0,1,0.3,1.9,1,2.6c0.7,0.7,1.5,1,2.5,1c1,0,1.8-0.3,2.5-1c0.7-0.7,1-1.5,1-2.6c0-1-0.3-1.9-1-2.6c-0.7-0.7-1.5-1-2.5-1
	C135.1,19.1,134.3,19.5,133.6,20.1z M153.5,16.4h3.4l-5.4,12.7h-2.4l-5.8-12.7h3.8l2.3,5.4c0.4,0.9,0.7,1.8,1,2.9
	c0.3-1.1,0.6-2,0.9-2.9L153.5,16.4z M166.5,16.4h4.1l-4.7,5.8l5.3,6.8h-4.1l-5-6.6L166.5,16.4z M161.9,29h-3.2V9.4h3.2V29z
	 M174,19.6l-0.8-2.4c1.4-0.8,2.8-1.2,4.5-1.2c1.8,0,3,0.4,3.8,1.3c0.8,0.9,1.2,2.2,1.2,3.9V29h-2.8v-1.5c-0.7,1.1-2,1.6-3.7,1.6
	c-1.2,0-2.2-0.3-2.9-1c-0.7-0.7-1.1-1.7-1.1-2.8c0-1.3,0.4-2.3,1.3-3c0.8-0.7,2-1.1,3.3-1.1c1.1,0,2.1,0.3,2.9,0.8
	c0-1.1-0.1-1.9-0.5-2.5c-0.4-0.5-1-0.8-1.8-0.8C176.4,18.8,175.3,19.1,174,19.6z M177.3,26.5c1.1,0,1.9-0.4,2.4-1.1V24
	c-0.5-0.4-1.3-0.6-2.2-0.6c-0.6,0-1.1,0.1-1.5,0.4c-0.4,0.3-0.6,0.7-0.6,1.1c0,0.4,0.2,0.8,0.5,1.1
	C176.3,26.3,176.7,26.5,177.3,26.5z M185.5,26.9c0-0.5,0.2-1,0.6-1.4c0.4-0.4,1-0.6,1.6-0.6c0.6,0,1,0.2,1.4,0.6
	c0.4,0.4,0.6,0.9,0.6,1.4c0,0.6-0.2,1.1-0.6,1.6c-0.4,0.4-0.9,0.6-1.4,0.6c-0.7,0-1.2-0.2-1.6-0.6C185.7,28,185.5,27.5,185.5,26.9z
	 M193.9,27.5c-1.3-1.3-1.9-2.8-1.9-4.8s0.6-3.5,1.9-4.7c1.3-1.3,2.9-1.9,5-1.9c2.1,0,3.7,0.6,5,1.9c1.3,1.2,1.9,2.8,1.9,4.7
	c0,1.9-0.6,3.5-1.9,4.8c-1.3,1.2-2.9,1.8-5,1.8C196.8,29.3,195.2,28.7,193.9,27.5z M196.5,20.1c-0.7,0.7-1,1.5-1,2.6
	c0,1,0.3,1.9,1,2.6c0.7,0.7,1.5,1,2.5,1c1,0,1.8-0.3,2.5-1c0.7-0.7,1-1.5,1-2.6c0-1-0.3-1.9-1-2.6c-0.7-0.7-1.5-1-2.5-1
	C197.9,19.1,197.1,19.5,196.5,20.1z M211.8,29h-3.2V16.4h3.2v1.2c0.7-1,1.7-1.5,2.9-1.5c0.9,0,1.5,0.2,2,0.5l-1.1,3
	c-0.5-0.3-1.1-0.5-1.6-0.5c-0.9,0-1.6,0.4-2.1,1.3V29z M216.8,30.7c0-1,0.4-1.8,1.1-2.5c0.7-0.7,1.7-1.1,3-1.4
	c-0.1-0.3-0.2-0.6-0.2-0.9c0-0.4,0.1-0.7,0.3-0.9c-0.9-0.4-1.7-0.9-2.2-1.7c-0.5-0.8-0.8-1.6-0.8-2.5c0-1.3,0.5-2.4,1.5-3.3
	c1-0.9,2.3-1.4,3.9-1.4c1.2,0,2.3,0.3,3.2,0.9l3.8-0.8l0.1,2.6l-2.1,0.5c0.2,0.6,0.3,1.1,0.3,1.6c0,1.3-0.5,2.4-1.5,3.3
	c-1,0.9-2.3,1.3-3.9,1.3h-0.2c0,0.1-0.1,0.3-0.1,0.5c0,0.2,0.1,0.5,0.2,0.6h0.1c2,0,3.5,0.3,4.7,1c1.2,0.7,1.8,1.7,1.8,3.1
	c0,1.3-0.6,2.4-1.8,3.1c-1.2,0.7-2.8,1-4.7,1c-2,0-3.6-0.4-4.8-1.1C217.4,33.1,216.8,32.1,216.8,30.7z M219.8,30.7
	c0,0.5,0.3,0.9,0.9,1.1c0.6,0.3,1.5,0.4,2.6,0.4c2.4,0,3.5-0.5,3.5-1.5c0-0.5-0.3-0.8-0.9-1.1c-0.6-0.3-1.5-0.4-2.6-0.4
	c-1.1,0-2,0.1-2.6,0.4C220.1,29.9,219.8,30.2,219.8,30.7z M223.3,22.9c0.7,0,1.3-0.2,1.7-0.6c0.4-0.4,0.7-0.9,0.7-1.5
	c0-0.6-0.2-1.1-0.6-1.5s-1-0.6-1.7-0.6s-1.3,0.2-1.7,0.6c-0.4,0.4-0.6,0.9-0.6,1.5c0,0.6,0.2,1.1,0.6,1.5
	C222,22.7,222.6,22.9,223.3,22.9z"/>
<path d="M0.9,19.2l4.6,1.6V36c0,0.6,0.4,1.1,0.9,1.3L28.6,45c0,0,0.1,0,0.1,0h0.1H29h0h0.2h0c0,0,0.1,0,0.1,0l22.1-7.7
	c0.2-0.1,0.4-0.2,0.6-0.3c0.2-0.2,0.4-0.6,0.4-0.9V20.8l4.6-1.6c0.4-0.1,0.7-0.5,0.8-0.8c0.1-0.4,0.1-0.8-0.1-1.2l-5.5-9
	c0,0,0,0,0,0c0,0,0,0,0-0.1c0,0,0,0,0,0c0,0-0.1-0.1-0.1-0.1c0,0,0,0,0,0c0,0,0,0,0,0c0,0,0,0,0,0c0,0-0.1,0-0.1-0.1c0,0,0,0,0,0h0
	c0,0-0.1,0-0.1,0c0,0,0,0,0,0L29.4,0h0c0,0-0.1,0-0.1,0c0,0-0.1,0-0.1,0c0,0-0.1,0-0.1,0s-0.1,0-0.1,0s-0.1,0-0.1,0s-0.1,0-0.1,0h0
	L6.4,7.7c0,0,0,0,0,0c0,0-0.1,0-0.1,0c0,0,0,0,0,0c0,0-0.1,0-0.1,0.1c0,0,0,0,0,0c0,0,0,0-0.1,0.1c0,0,0,0,0,0.1c0,0,0,0.1-0.1,0.1
	c0,0,0,0,0,0l-5.5,9c-0.2,0.2-0.2,0.7-0.1,1C0.2,18.8,0.5,19.1,0.9,19.2L0.9,19.2z M27.6,30.9v10.9L8.3,35.1V21.8L23,26.9
	c0.1,0,0.3,0.1,0.5,0.1c0.5,0,0.9-0.2,1.2-0.7l2.9-4.8V30.9z M35.2,24l-4.1-6.7l19.4-6.8l4.1,6.7L35.2,24z M27.6,3.1v5.8
	c0,0.8,0.6,1.4,1.4,1.4c0.8,0,1.4-0.6,1.4-1.4V3.1L47,8.9l-18,6.2L11,8.9L27.6,3.1z M7.5,10.5L27,17.3L22.8,24L3.4,17.2L7.5,10.5z"
	/>
</svg>
