<svg width="233" height="45" viewBox="0 0 233 45" fill="none" xmlns="http://www.w3.org/2000/svg">
<path d="M80.968 16.4H84.188V29H80.968V27.46C79.96 28.692 78.616 29.308 76.936 29.308C75.592 29.308 74.5187 28.86 73.716 27.964C72.9133 27.068 72.512 25.78 72.512 24.1V16.4H75.732V23.428C75.732 25.3507 76.5347 26.312 78.14 26.312C79.2413 26.312 80.184 25.7987 80.968 24.772V16.4ZM90.9964 34.6H87.7764V16.4H90.9964V17.604C91.407 17.156 91.967 16.792 92.6764 16.512C93.3857 16.232 94.123 16.092 94.8884 16.092C96.6244 16.092 98.0057 16.6893 99.0324 17.884C100.078 19.0973 100.6 20.6373 100.6 22.504C100.6 24.464 99.9844 26.088 98.7524 27.376C97.5204 28.664 95.915 29.308 93.9364 29.308C92.667 29.308 91.687 29.1027 90.9964 28.692V34.6ZM93.8804 19.116C92.7604 19.116 91.799 19.5733 90.9964 20.488V25.584C91.7617 26.0693 92.6484 26.312 93.6564 26.312C94.7204 26.312 95.5697 25.9667 96.2044 25.276C96.8577 24.5853 97.1844 23.6893 97.1844 22.588C97.1844 21.5427 96.8857 20.7027 96.2884 20.068C95.7097 19.4333 94.907 19.116 93.8804 19.116ZM104.37 19.648L103.558 17.296C104.92 16.4933 106.404 16.092 108.01 16.092C109.764 16.092 111.043 16.5213 111.846 17.38C112.648 18.2387 113.05 19.5547 113.05 21.328V29H110.25V27.544C109.503 28.6267 108.262 29.168 106.526 29.168C105.331 29.168 104.37 28.8227 103.642 28.132C102.932 27.4227 102.578 26.48 102.578 25.304C102.578 23.9973 102.998 22.9893 103.838 22.28C104.678 21.5707 105.788 21.216 107.17 21.216C108.308 21.216 109.26 21.4867 110.026 22.028C110.063 20.908 109.895 20.0867 109.522 19.564C109.167 19.0413 108.551 18.78 107.674 18.78C106.703 18.78 105.602 19.0693 104.37 19.648ZM107.59 26.452C108.672 26.452 109.484 26.0693 110.026 25.304V24.016C109.503 23.6053 108.766 23.4 107.814 23.4C107.216 23.4 106.731 23.54 106.358 23.82C105.984 24.1 105.798 24.4827 105.798 24.968C105.798 25.416 105.966 25.78 106.302 26.06C106.638 26.3213 107.067 26.452 107.59 26.452ZM124.135 16.4H128.195L123.463 22.168L128.755 29H124.611L119.627 22.42L124.135 16.4ZM119.571 29H116.351V9.4H119.571V29ZM131.06 27.46C129.809 26.2093 129.184 24.6227 129.184 22.7C129.184 20.7773 129.809 19.2 131.06 17.968C132.31 16.7173 133.972 16.092 136.044 16.092C138.097 16.092 139.749 16.7173 141 17.968C142.269 19.2 142.904 20.7773 142.904 22.7C142.904 24.604 142.269 26.1907 141 27.46C139.73 28.692 138.078 29.308 136.044 29.308C133.972 29.308 132.31 28.692 131.06 27.46ZM133.608 20.124C132.954 20.796 132.628 21.6547 132.628 22.7C132.628 23.7453 132.945 24.6133 133.58 25.304C134.233 25.976 135.054 26.312 136.044 26.312C137.052 26.312 137.873 25.976 138.508 25.304C139.161 24.632 139.488 23.764 139.488 22.7C139.488 21.6547 139.161 20.796 138.508 20.124C137.854 19.452 137.033 19.116 136.044 19.116C135.073 19.116 134.261 19.452 133.608 20.124ZM153.542 16.4H156.93L151.498 29.056H149.118L143.322 16.4H147.158L149.482 21.804C149.874 22.6813 150.192 23.6333 150.434 24.66C150.696 23.596 151.004 22.6253 151.358 21.748L153.542 16.4ZM166.463 16.4H170.523L165.791 22.168L171.083 29H166.939L161.955 22.42L166.463 16.4ZM161.899 29H158.679V9.4H161.899V29ZM174.042 19.648L173.23 17.296C174.592 16.4933 176.076 16.092 177.682 16.092C179.436 16.092 180.715 16.5213 181.518 17.38C182.32 18.2387 182.722 19.5547 182.722 21.328V29H179.922V27.544C179.175 28.6267 177.934 29.168 176.198 29.168C175.003 29.168 174.042 28.8227 173.314 28.132C172.604 27.4227 172.25 26.48 172.25 25.304C172.25 23.9973 172.67 22.9893 173.51 22.28C174.35 21.5707 175.46 21.216 176.842 21.216C177.98 21.216 178.932 21.4867 179.698 22.028C179.735 20.908 179.567 20.0867 179.194 19.564C178.839 19.0413 178.223 18.78 177.346 18.78C176.375 18.78 175.274 19.0693 174.042 19.648ZM177.262 26.452C178.344 26.452 179.156 26.0693 179.698 25.304V24.016C179.175 23.6053 178.438 23.4 177.486 23.4C176.888 23.4 176.403 23.54 176.03 23.82C175.656 24.1 175.47 24.4827 175.47 24.968C175.47 25.416 175.638 25.78 175.974 26.06C176.31 26.3213 176.739 26.452 177.262 26.452ZM185.49 26.9C185.49 26.3587 185.696 25.8827 186.106 25.472C186.536 25.0427 187.077 24.828 187.73 24.828C188.29 24.828 188.766 25.0427 189.158 25.472C189.569 25.8827 189.774 26.3587 189.774 26.9C189.774 27.516 189.569 28.048 189.158 28.496C188.766 28.9253 188.29 29.14 187.73 29.14C187.077 29.14 186.536 28.9253 186.106 28.496C185.696 28.048 185.49 27.516 185.49 26.9ZM193.923 27.46C192.672 26.2093 192.047 24.6227 192.047 22.7C192.047 20.7773 192.672 19.2 193.923 17.968C195.174 16.7173 196.835 16.092 198.907 16.092C200.96 16.092 202.612 16.7173 203.863 17.968C205.132 19.2 205.767 20.7773 205.767 22.7C205.767 24.604 205.132 26.1907 203.863 27.46C202.594 28.692 200.942 29.308 198.907 29.308C196.835 29.308 195.174 28.692 193.923 27.46ZM196.471 20.124C195.818 20.796 195.491 21.6547 195.491 22.7C195.491 23.7453 195.808 24.6133 196.443 25.304C197.096 25.976 197.918 26.312 198.907 26.312C199.915 26.312 200.736 25.976 201.371 25.304C202.024 24.632 202.351 23.764 202.351 22.7C202.351 21.6547 202.024 20.796 201.371 20.124C200.718 19.452 199.896 19.116 198.907 19.116C197.936 19.116 197.124 19.452 196.471 20.124ZM211.774 29H208.554V16.4H211.774V17.632C212.464 16.6613 213.426 16.176 214.658 16.176C215.535 16.176 216.188 16.3347 216.618 16.652L215.47 19.676C214.928 19.3587 214.387 19.2 213.846 19.2C212.912 19.2 212.222 19.648 211.774 20.544V29ZM216.8 30.708C216.8 29.7187 217.164 28.8973 217.892 28.244C218.62 27.572 219.619 27.096 220.888 26.816C220.739 26.5547 220.664 26.2653 220.664 25.948C220.664 25.5933 220.757 25.2947 220.944 25.052C220.011 24.6787 219.273 24.1187 218.732 23.372C218.209 22.6067 217.948 21.7573 217.948 20.824C217.948 19.536 218.443 18.4253 219.432 17.492C220.421 16.5587 221.719 16.092 223.324 16.092C224.537 16.092 225.611 16.3907 226.544 16.988L230.352 16.148L230.464 18.724L228.364 19.2C228.569 19.76 228.672 20.3013 228.672 20.824C228.672 22.0933 228.177 23.1947 227.188 24.128C226.217 25.024 224.929 25.472 223.324 25.472H223.1C223.063 25.6213 223.044 25.78 223.044 25.948C223.044 26.1907 223.1 26.4053 223.212 26.592H223.352C225.312 26.592 226.889 26.9373 228.084 27.628C229.297 28.3373 229.904 29.364 229.904 30.708C229.904 32.052 229.297 33.0787 228.084 33.788C226.889 34.4787 225.312 34.824 223.352 34.824C221.336 34.824 219.74 34.4693 218.564 33.76C217.388 33.0693 216.8 32.052 216.8 30.708ZM219.796 30.708C219.796 31.1933 220.104 31.5667 220.72 31.828C221.355 32.108 222.232 32.248 223.352 32.248C225.704 32.248 226.88 31.7347 226.88 30.708C226.88 30.2413 226.572 29.868 225.956 29.588C225.34 29.308 224.472 29.168 223.352 29.168C222.251 29.168 221.383 29.308 220.748 29.588C220.113 29.868 219.796 30.2413 219.796 30.708ZM223.324 22.868C224.015 22.868 224.575 22.6813 225.004 22.308C225.452 21.9347 225.676 21.44 225.676 20.824C225.676 20.1893 225.461 19.676 225.032 19.284C224.603 18.892 224.033 18.696 223.324 18.696C222.615 18.696 222.045 18.9013 221.616 19.312C221.187 19.704 220.972 20.208 220.972 20.824C220.972 21.4213 221.187 21.916 221.616 22.308C222.045 22.6813 222.615 22.868 223.324 22.868Z" fill="white"/>
<path d="M0.909999 19.2018L5.51891 20.7831V36.009C5.51891 36.5964 5.88762 37.0934 6.44069 37.2741L28.5635 44.9548C28.6096 44.9548 28.6556 45 28.7017 45H28.7939H28.9783H29.0244H29.2548H29.3009C29.347 45 29.3931 44.9548 29.4392 44.9548L51.5619 37.2741C51.7463 37.1837 51.9306 37.0934 52.115 36.9578C52.3454 36.7319 52.4837 36.3705 52.4837 36.009V20.8283L57.0926 19.247C57.4613 19.1114 57.784 18.7952 57.9222 18.4337C58.0605 18.0723 58.0144 17.6205 57.784 17.259L52.2533 8.22289C52.2533 8.22289 52.2533 8.22289 52.2533 8.17771C52.2533 8.13253 52.2072 8.13253 52.2072 8.08735C52.2072 8.08735 52.2072 8.08735 52.2072 8.04217C52.1611 7.99699 52.115 7.95181 52.115 7.90663C52.115 7.90663 52.115 7.90663 52.0689 7.86145C52.0689 7.86145 52.0689 7.86145 52.0228 7.86145C52.0228 7.86145 52.0228 7.86145 51.9767 7.86145C51.9306 7.81627 51.8846 7.81626 51.8385 7.77108C51.8385 7.77108 51.8385 7.77108 51.7924 7.77108H51.7463C51.7002 7.7259 51.6541 7.7259 51.608 7.7259C51.608 7.7259 51.608 7.7259 51.5619 7.7259L29.4392 0.0451809H29.3931C29.347 0.0451809 29.3009 0 29.2548 0C29.2087 0 29.1626 0 29.1165 0C29.0704 0 29.0244 0 28.9783 0C28.9322 0 28.8861 0 28.84 0C28.7939 0 28.7478 0 28.7017 0C28.6556 0 28.6096 1.71678e-07 28.5635 0.0451809H28.5174L6.3946 7.7259C6.3946 7.7259 6.34851 7.7259 6.34851 7.77108C6.30242 7.77108 6.25633 7.81626 6.21025 7.81626C6.16416 7.81626 6.16416 7.86145 6.16416 7.86145C6.11807 7.90663 6.07198 7.90663 6.02589 7.95181C5.9798 7.95181 5.9798 7.99699 5.9798 7.99699C5.93371 8.04217 5.93371 8.04217 5.88762 8.08735C5.88762 8.08735 5.84153 8.13253 5.84153 8.17771C5.79544 8.22289 5.79544 8.26807 5.74935 8.26807C5.74935 8.26807 5.74935 8.31325 5.70327 8.31325L0.172573 17.3494C-0.0117835 17.5753 -0.0578726 18.0271 0.0803948 18.3886C0.218662 18.75 0.495197 19.0663 0.909999 19.2018V19.2018ZM27.6417 30.9036V41.7922L8.28426 35.0602V21.7771L23.0328 26.8825C23.171 26.9277 23.3554 26.9729 23.4937 26.9729C23.9546 26.9729 24.4154 26.747 24.692 26.2952L27.6417 21.4608V30.9036ZM35.1542 23.991L31.0523 17.3042L50.5019 10.5271L54.6038 17.2139L35.1542 23.991ZM27.6417 3.11747V8.9006C27.6417 9.66867 28.2408 10.256 29.0244 10.256C29.8079 10.256 30.407 9.66867 30.407 8.9006V3.11747L46.9991 8.9006L29.0244 15.1355L11.0496 8.9006L27.6417 3.11747ZM7.50074 10.5271L26.9503 17.3042L22.8484 23.991L3.39881 17.2139L7.50074 10.5271Z" fill="white"/>
</svg>
