<svg width="314" height="322" viewBox="0 0 314 322" fill="none" xmlns="http://www.w3.org/2000/svg">
<path d="M271.226 135.123C271.613 89.725 232.947 48.107 185.034 42.352C184.081 42.239 183.043 42.067 181.944 41.885C179.572 41.492 177.119 41.088 174.644 41.088C164.824 41.088 162.199 47.986 161.508 52.1C160.836 56.1 161.477 59.459 163.41 62.088C166.662 66.51 172.384 67.295 176.98 67.924C178.327 68.11 179.598 68.283 180.662 68.522C223.71 78.141 238.205 93.264 245.289 135.946C245.462 136.989 245.54 138.274 245.623 139.637C245.932 144.739 246.576 155.354 257.988 155.354H257.989C258.939 155.354 259.96 155.272 261.023 155.11C271.65 153.495 271.317 143.792 271.157 139.13C271.112 137.817 271.069 136.575 271.18 135.749C271.21 135.541 271.225 135.332 271.226 135.123Z" fill="white"/>
<path d="M171.858 25.688C173.133 25.78 174.34 25.868 175.345 26.022C246.034 36.893 278.543 70.385 287.552 141.627C287.705 142.838 287.729 144.315 287.754 145.879C287.844 151.445 288.029 163.024 300.464 163.264L300.85 163.268C304.75 163.268 307.852 162.092 310.071 159.77C313.942 155.721 313.672 149.706 313.454 144.872C313.401 143.686 313.35 142.569 313.363 141.591C314.262 68.729 251.192 2.658 178.395 0.201C178.093 0.191 177.805 0.207 177.514 0.248C177.371 0.269 177.106 0.295 176.652 0.295C175.926 0.295 175.033 0.232 174.086 0.168C172.941 0.09 171.643 0 170.327 0C158.734 0 156.53 8.24 156.248 13.152C155.598 24.504 166.58 25.303 171.858 25.688Z" fill="white"/>
<path d="M284.141 233.703C282.638 232.555 281.084 231.367 279.629 230.195C271.911 223.984 263.7 218.259 255.759 212.722C254.111 211.574 252.463 210.425 250.821 209.273C240.649 202.128 231.504 198.656 222.864 198.656C211.227 198.656 201.081 205.086 192.707 217.765C188.997 223.386 184.496 226.119 178.949 226.119C175.669 226.119 171.942 225.183 167.873 223.336C135.04 208.447 111.595 185.619 98.1881 155.486C91.7071 140.922 93.8081 131.402 105.214 123.654C111.691 119.258 123.747 111.074 122.893 95.402C121.926 77.605 82.6581 24.056 66.1131 17.974C59.1081 15.398 51.7481 15.374 44.1981 17.914C25.1781 24.308 11.5291 35.537 4.72313 50.385C-1.85387 64.732 -1.55687 81.578 5.58213 99.102C26.2201 149.768 55.2361 193.942 91.8271 230.395C127.643 266.079 171.664 295.309 222.666 317.27C227.263 319.248 232.085 320.327 235.606 321.114C236.806 321.384 237.842 321.614 238.597 321.821C239.012 321.934 239.44 321.995 239.869 321.999L240.272 322.001C240.273 322.001 240.272 322.001 240.274 322.001C264.262 322.001 293.065 300.081 301.911 275.091C309.661 253.209 295.511 242.393 284.141 233.703Z" fill="white"/>
<path d="M182.468 83.564C178.361 83.668 169.814 83.88 166.815 92.585C165.412 96.653 165.58 100.185 167.315 103.083C169.861 107.335 174.739 108.638 179.176 109.353C195.267 111.935 203.531 120.833 205.184 137.353C205.952 145.056 211.139 150.435 217.799 150.435H217.8C218.292 150.435 218.795 150.406 219.296 150.345C227.306 149.392 231.189 143.507 230.838 132.855C230.966 121.738 225.148 109.117 215.253 99.064C205.324 88.98 193.355 83.301 182.468 83.564Z" fill="white"/>
</svg>
